<svg width="23" height="21" viewBox="0 0 23 21" fill="none" xmlns="http://www.w3.org/2000/svg">
<path d="M9.77904 1.36046L10.9186 0.327905C11.4012 -0.109302 12.1815 -0.109302 12.6589 0.327905L22.6381 9.36505C23.1206 9.80225 23.1206 10.5092 22.6381 10.9418L12.6589 19.9836C12.1763 20.4208 11.396 20.4208 10.9186 19.9836L9.77904 18.951C9.29137 18.5092 9.30164 17.7882 9.79958 17.3557L15.9853 12.0162H1.23201C0.549269 12.0162 0 11.5185 0 10.8999V9.41156C0 8.79296 0.549269 8.29529 1.23201 8.29529H15.9853L9.79958 2.95579C9.29651 2.52324 9.28624 1.80231 9.77904 1.36046Z" fill="white"/>
</svg>
