<svg width="1920" height="1087" viewBox="0 0 1920 1087" fill="none" xmlns="http://www.w3.org/2000/svg">
<path d="M-2.38419e-06 719.5V1087H1920V770C1920 770 1701 934.5 1537 934.5C1380.5 934.5 1264 832 1044.5 785.5C947.359 764.921 801.216 767.578 795 736.5C788.5 704 851.524 680.415 898 665C999 631.5 1113.49 615.794 1251.5 584C1320.83 568.029 1371.04 584.26 1429 543C1476.56 509.138 1478.22 465.701 1517.5 422.5C1581.32 352.299 1631.13 327.198 1709 273C1773.61 228.035 1805.42 192.107 1879.5 165.5C1895.08 159.905 1920 153 1920 153V0H1793.5C1793.5 0 1491.5 62.3631 1318 151C1141.54 241.148 1090.08 369.173 911 454C692.5 557.5 608.698 530.806 416.5 643.5C292 716.5 246.781 770.605 149 764C93.4741 760.249 36 714.5 15 715.5C-6.00001 716.5 -2.38419e-06 719.5 -2.38419e-06 719.5Z" fill="#14213D"/>
</svg>
