<svg width="14" height="16" viewBox="0 0 14 16" fill="none" xmlns="http://www.w3.org/2000/svg">
<path d="M0.5 3.63589H13.5C13.7762 3.63589 14 3.36748 14 3.03633V1.53743C14 1.20628 13.7762 0.937866 13.5 0.937866H0.5C0.223844 0.937866 0 1.20628 0 1.53743V3.03633C0 3.36748 0.223844 3.63589 0.5 3.63589ZM0.5 9.63151H13.5C13.7762 9.63151 14 9.3631 14 9.03195V7.53305C14 7.2019 13.7762 6.93349 13.5 6.93349H0.5C0.223844 6.93349 0 7.2019 0 7.53305V9.03195C0 9.3631 0.223844 9.63151 0.5 9.63151ZM0.5 15.6271H13.5C13.7762 15.6271 14 15.3587 14 15.0276V13.5287C14 13.1975 13.7762 12.9291 13.5 12.9291H0.5C0.223844 12.9291 0 13.1975 0 13.5287V15.0276C0 15.3587 0.223844 15.6271 0.5 15.6271Z" fill="white"/>
</svg>
