<svg width="33" height="38" viewBox="0 0 33 38" fill="none" xmlns="http://www.w3.org/2000/svg">
<path d="M21.8931 17.9143C21.8931 19.0646 21.0446 20.0074 19.9697 20.0074C18.9137 20.0074 18.0463 19.0646 18.0463 17.9143C18.0463 16.764 18.8949 15.8211 19.9697 15.8211C21.0446 15.8211 21.8931 16.764 21.8931 17.9143ZM13.0869 15.8211C12.012 15.8211 11.1634 16.764 11.1634 17.9143C11.1634 19.0646 12.0309 20.0074 13.0869 20.0074C14.1617 20.0074 15.0103 19.0646 15.0103 17.9143C15.0291 16.764 14.1617 15.8211 13.0869 15.8211ZM33 3.88457V37.7143C28.2493 33.5161 29.7687 34.9058 24.2503 29.7754L25.2497 33.264H3.86571C1.73486 33.264 0 31.5291 0 29.3794V3.88457C0 1.73486 1.73486 0 3.86571 0H29.1343C31.2651 0 33 1.73486 33 3.88457ZM27.6257 21.7611C27.6257 15.6891 24.9103 10.7674 24.9103 10.7674C22.1949 8.73086 19.6114 8.78743 19.6114 8.78743L19.3474 9.08914C22.5531 10.0697 24.0429 11.484 24.0429 11.484C19.5635 9.02896 14.3017 9.02852 9.95657 10.9371C9.25886 11.2577 8.844 11.484 8.844 11.484C8.844 11.484 10.4091 9.99429 13.8034 9.01371L13.6149 8.78743C13.6149 8.78743 11.0314 8.73086 8.316 10.7674C8.316 10.7674 5.60057 15.6891 5.60057 21.7611C5.60057 21.7611 7.18457 24.4954 11.352 24.6274C11.352 24.6274 12.0497 23.7789 12.6154 23.0623C10.2206 22.3457 9.31543 20.8371 9.31543 20.8371C9.59283 21.0313 10.0503 21.283 10.0886 21.3086C13.2715 23.091 17.7926 23.675 21.8554 21.9686C22.5154 21.7234 23.2509 21.3651 24.024 20.856C24.024 20.856 23.0811 22.4023 20.6109 23.1C21.1766 23.8166 21.8554 24.6274 21.8554 24.6274C26.0229 24.4954 27.6257 21.7611 27.6257 21.7611Z" fill="white"/>
</svg>
