<svg width="36" height="25" viewBox="0 0 36 25" fill="none" xmlns="http://www.w3.org/2000/svg">
<path d="M35.3184 8.25521C35.5925 8.05339 36 8.24219 36 8.5612V21.875C36 23.6003 34.4893 25 32.6271 25H3.39547C1.53335 25 0.022583 23.6003 0.022583 21.875V8.56771C0.022583 8.24219 0.423113 8.0599 0.704187 8.26172C2.2782 9.39453 4.36517 10.8333 11.5326 15.6576C13.0152 16.6602 15.5168 18.7695 18.0113 18.7565C20.5199 18.776 23.0706 16.6211 24.4971 15.6576C31.6645 10.8333 33.7444 9.38802 35.3184 8.25521ZM18.0113 16.6667C19.6415 16.6927 21.9885 14.7656 23.169 13.9714C32.4936 7.70182 33.2033 7.15495 35.3536 5.59245C35.7611 5.29948 36 4.84375 36 4.36198V3.125C36 1.39974 34.4893 0 32.6271 0H3.39547C1.53335 0 0.022583 1.39974 0.022583 3.125V4.36198C0.022583 4.84375 0.261496 5.29297 0.669053 5.59245C2.81927 7.14844 3.52898 7.70182 12.8536 13.9714C14.0341 14.7656 16.3811 16.6927 18.0113 16.6667Z" fill="white"/>
</svg>
