<svg width="34" height="33" viewBox="0 0 34 33" fill="none" xmlns="http://www.w3.org/2000/svg">
<path d="M30.4148 0H4.12362C2.14431 0 0.538452 1.58371 0.538452 3.53571V29.4643C0.538452 31.4163 2.14431 33 4.12362 33H30.4148C32.3941 33 34 31.4163 34 29.4643V3.53571C34 1.58371 32.3941 0 30.4148 0ZM26.7624 11.6973C26.7774 11.9036 26.7774 12.1172 26.7774 12.3234C26.7774 18.7098 21.8478 26.0685 12.84 26.0685C10.0615 26.0685 7.48471 25.273 5.31867 23.9029C5.71453 23.9471 6.09546 23.9618 6.49879 23.9618C8.7918 23.9618 10.8981 23.1958 12.5786 21.8993C10.4275 21.8551 8.62001 20.4629 8.00008 18.5478C8.75446 18.6583 9.43414 18.6583 10.2109 18.4594C7.9702 18.01 6.28965 16.0654 6.28965 13.7156V13.6567C6.93947 14.0176 7.70131 14.2386 8.50051 14.2681C7.82861 13.8273 7.2778 13.2294 6.89724 12.5276C6.51668 11.8258 6.31821 11.042 6.31953 10.2462C6.31953 9.34755 6.55854 8.52254 6.98428 7.80804C9.3968 10.7397 13.0193 12.6549 17.0825 12.8612C16.3879 9.58326 18.8751 6.92411 21.8627 6.92411C23.2744 6.92411 24.5441 7.50603 25.4404 8.44888C26.5458 8.24263 27.6064 7.8375 28.5476 7.28504C28.1816 8.40469 27.4123 9.34754 26.3965 9.9442C27.3824 9.84107 28.3384 9.56853 29.2198 9.19286C28.555 10.1578 27.7185 11.0123 26.7624 11.6973Z" fill="white"/>
</svg>
